<mxfile host="Electron" agent="Mozilla/5.0 (Windows NT 10.0; Win64; x64) AppleWebKit/537.36 (KHTML, like Gecko) draw.io/28.1.2 Chrome/138.0.7204.243 Electron/37.4.0 Safari/537.36" version="28.1.2">
  <diagram name="Page-1" id="DmYeA9cf048zuRF9Km-G">
    <mxGraphModel dx="908" dy="589" grid="1" gridSize="10" guides="1" tooltips="1" connect="1" arrows="1" fold="1" page="1" pageScale="1" pageWidth="850" pageHeight="1100" math="0" shadow="0">
      <root>
        <mxCell id="0" />
        <mxCell id="1" parent="0" />
        <mxCell id="wTgXuU1ysfdloSgrYVFF-3" value="" style="edgeStyle=orthogonalEdgeStyle;rounded=0;orthogonalLoop=1;jettySize=auto;html=1;" edge="1" parent="1" source="wTgXuU1ysfdloSgrYVFF-1" target="wTgXuU1ysfdloSgrYVFF-2">
          <mxGeometry relative="1" as="geometry" />
        </mxCell>
        <mxCell id="wTgXuU1ysfdloSgrYVFF-1" value="mulai&amp;nbsp;" style="ellipse;whiteSpace=wrap;html=1;" vertex="1" parent="1">
          <mxGeometry x="90" y="30" width="70" height="40" as="geometry" />
        </mxCell>
        <mxCell id="wTgXuU1ysfdloSgrYVFF-5" value="" style="edgeStyle=orthogonalEdgeStyle;rounded=0;orthogonalLoop=1;jettySize=auto;html=1;" edge="1" parent="1" source="wTgXuU1ysfdloSgrYVFF-2" target="wTgXuU1ysfdloSgrYVFF-4">
          <mxGeometry relative="1" as="geometry" />
        </mxCell>
        <mxCell id="wTgXuU1ysfdloSgrYVFF-2" value="input&amp;nbsp;&lt;div&gt;username dan password&amp;nbsp;&lt;/div&gt;" style="shape=parallelogram;perimeter=parallelogramPerimeter;whiteSpace=wrap;html=1;fixedSize=1;" vertex="1" parent="1">
          <mxGeometry x="65" y="110" width="120" height="60" as="geometry" />
        </mxCell>
        <mxCell id="wTgXuU1ysfdloSgrYVFF-7" value="" style="edgeStyle=orthogonalEdgeStyle;rounded=0;orthogonalLoop=1;jettySize=auto;html=1;" edge="1" parent="1" source="wTgXuU1ysfdloSgrYVFF-4" target="wTgXuU1ysfdloSgrYVFF-6">
          <mxGeometry relative="1" as="geometry" />
        </mxCell>
        <mxCell id="wTgXuU1ysfdloSgrYVFF-14" value="" style="edgeStyle=orthogonalEdgeStyle;rounded=0;orthogonalLoop=1;jettySize=auto;html=1;" edge="1" parent="1" source="wTgXuU1ysfdloSgrYVFF-4" target="wTgXuU1ysfdloSgrYVFF-13">
          <mxGeometry relative="1" as="geometry" />
        </mxCell>
        <mxCell id="wTgXuU1ysfdloSgrYVFF-4" value="username dan password benar" style="rhombus;whiteSpace=wrap;html=1;" vertex="1" parent="1">
          <mxGeometry x="70" y="200" width="110" height="100" as="geometry" />
        </mxCell>
        <mxCell id="wTgXuU1ysfdloSgrYVFF-9" value="" style="edgeStyle=orthogonalEdgeStyle;rounded=0;orthogonalLoop=1;jettySize=auto;html=1;" edge="1" parent="1" source="wTgXuU1ysfdloSgrYVFF-6" target="wTgXuU1ysfdloSgrYVFF-8">
          <mxGeometry relative="1" as="geometry" />
        </mxCell>
        <mxCell id="wTgXuU1ysfdloSgrYVFF-6" value="output username dan passsword salah&amp;nbsp;" style="shape=parallelogram;perimeter=parallelogramPerimeter;whiteSpace=wrap;html=1;fixedSize=1;" vertex="1" parent="1">
          <mxGeometry x="210" y="220" width="140" height="60" as="geometry" />
        </mxCell>
        <mxCell id="wTgXuU1ysfdloSgrYVFF-52" style="edgeStyle=orthogonalEdgeStyle;rounded=0;orthogonalLoop=1;jettySize=auto;html=1;entryX=0.731;entryY=0;entryDx=0;entryDy=0;entryPerimeter=0;exitX=1;exitY=0.5;exitDx=0;exitDy=0;" edge="1" parent="1" source="wTgXuU1ysfdloSgrYVFF-8" target="wTgXuU1ysfdloSgrYVFF-48">
          <mxGeometry relative="1" as="geometry">
            <mxPoint x="140" y="960" as="targetPoint" />
            <mxPoint x="460.0000000000001" y="229.9999999999999" as="sourcePoint" />
            <Array as="points">
              <mxPoint x="780" y="250" />
              <mxPoint x="780" y="940" />
              <mxPoint x="140" y="940" />
            </Array>
          </mxGeometry>
        </mxCell>
        <mxCell id="wTgXuU1ysfdloSgrYVFF-53" style="edgeStyle=orthogonalEdgeStyle;rounded=0;orthogonalLoop=1;jettySize=auto;html=1;entryX=1;entryY=0.5;entryDx=0;entryDy=0;" edge="1" parent="1" source="wTgXuU1ysfdloSgrYVFF-8" target="wTgXuU1ysfdloSgrYVFF-2">
          <mxGeometry relative="1" as="geometry">
            <mxPoint x="420" y="140" as="targetPoint" />
            <Array as="points">
              <mxPoint x="420" y="140" />
            </Array>
          </mxGeometry>
        </mxCell>
        <mxCell id="wTgXuU1ysfdloSgrYVFF-8" value="percobaan login &amp;lt;=3" style="rhombus;whiteSpace=wrap;html=1;" vertex="1" parent="1">
          <mxGeometry x="380" y="210" width="80" height="80" as="geometry" />
        </mxCell>
        <mxCell id="wTgXuU1ysfdloSgrYVFF-17" value="" style="edgeStyle=orthogonalEdgeStyle;rounded=0;orthogonalLoop=1;jettySize=auto;html=1;" edge="1" parent="1" source="wTgXuU1ysfdloSgrYVFF-13" target="wTgXuU1ysfdloSgrYVFF-15">
          <mxGeometry relative="1" as="geometry" />
        </mxCell>
        <mxCell id="wTgXuU1ysfdloSgrYVFF-13" value="output&amp;nbsp;&lt;div&gt;menu pilihan&amp;nbsp;&lt;/div&gt;" style="shape=parallelogram;perimeter=parallelogramPerimeter;whiteSpace=wrap;html=1;fixedSize=1;" vertex="1" parent="1">
          <mxGeometry x="65" y="320" width="120" height="60" as="geometry" />
        </mxCell>
        <mxCell id="wTgXuU1ysfdloSgrYVFF-19" value="" style="edgeStyle=orthogonalEdgeStyle;rounded=0;orthogonalLoop=1;jettySize=auto;html=1;" edge="1" parent="1" source="wTgXuU1ysfdloSgrYVFF-15" target="wTgXuU1ysfdloSgrYVFF-18">
          <mxGeometry relative="1" as="geometry" />
        </mxCell>
        <mxCell id="wTgXuU1ysfdloSgrYVFF-15" value="input&amp;nbsp;&lt;div&gt;pilihan&amp;nbsp;&lt;/div&gt;" style="shape=parallelogram;perimeter=parallelogramPerimeter;whiteSpace=wrap;html=1;fixedSize=1;" vertex="1" parent="1">
          <mxGeometry x="65" y="400" width="120" height="60" as="geometry" />
        </mxCell>
        <mxCell id="wTgXuU1ysfdloSgrYVFF-21" value="" style="edgeStyle=orthogonalEdgeStyle;rounded=0;orthogonalLoop=1;jettySize=auto;html=1;" edge="1" parent="1" source="wTgXuU1ysfdloSgrYVFF-18" target="wTgXuU1ysfdloSgrYVFF-20">
          <mxGeometry relative="1" as="geometry" />
        </mxCell>
        <mxCell id="wTgXuU1ysfdloSgrYVFF-24" value="" style="edgeStyle=orthogonalEdgeStyle;rounded=0;orthogonalLoop=1;jettySize=auto;html=1;" edge="1" parent="1" source="wTgXuU1ysfdloSgrYVFF-18" target="wTgXuU1ysfdloSgrYVFF-22">
          <mxGeometry relative="1" as="geometry" />
        </mxCell>
        <mxCell id="wTgXuU1ysfdloSgrYVFF-18" value="pilihan ==1&amp;nbsp;" style="rhombus;whiteSpace=wrap;html=1;" vertex="1" parent="1">
          <mxGeometry x="85" y="480" width="80" height="80" as="geometry" />
        </mxCell>
        <mxCell id="wTgXuU1ysfdloSgrYVFF-70" value="" style="edgeStyle=orthogonalEdgeStyle;rounded=0;orthogonalLoop=1;jettySize=auto;html=1;" edge="1" parent="1" source="wTgXuU1ysfdloSgrYVFF-20" target="wTgXuU1ysfdloSgrYVFF-66">
          <mxGeometry relative="1" as="geometry" />
        </mxCell>
        <mxCell id="wTgXuU1ysfdloSgrYVFF-20" value="input&amp;nbsp;&amp;nbsp;&lt;div&gt;jumlah pembelian&lt;/div&gt;" style="shape=parallelogram;perimeter=parallelogramPerimeter;whiteSpace=wrap;html=1;fixedSize=1;" vertex="1" parent="1">
          <mxGeometry x="65" y="580" width="120" height="60" as="geometry" />
        </mxCell>
        <mxCell id="wTgXuU1ysfdloSgrYVFF-25" value="" style="edgeStyle=orthogonalEdgeStyle;rounded=0;orthogonalLoop=1;jettySize=auto;html=1;" edge="1" parent="1" source="wTgXuU1ysfdloSgrYVFF-22" target="wTgXuU1ysfdloSgrYVFF-23">
          <mxGeometry relative="1" as="geometry" />
        </mxCell>
        <mxCell id="wTgXuU1ysfdloSgrYVFF-29" value="" style="edgeStyle=orthogonalEdgeStyle;rounded=0;orthogonalLoop=1;jettySize=auto;html=1;" edge="1" parent="1" source="wTgXuU1ysfdloSgrYVFF-22" target="wTgXuU1ysfdloSgrYVFF-26">
          <mxGeometry relative="1" as="geometry" />
        </mxCell>
        <mxCell id="wTgXuU1ysfdloSgrYVFF-22" value="pilihan == 2" style="rhombus;whiteSpace=wrap;html=1;" vertex="1" parent="1">
          <mxGeometry x="230" y="480" width="80" height="80" as="geometry" />
        </mxCell>
        <mxCell id="wTgXuU1ysfdloSgrYVFF-71" value="" style="edgeStyle=orthogonalEdgeStyle;rounded=0;orthogonalLoop=1;jettySize=auto;html=1;" edge="1" parent="1" source="wTgXuU1ysfdloSgrYVFF-23" target="wTgXuU1ysfdloSgrYVFF-68">
          <mxGeometry relative="1" as="geometry" />
        </mxCell>
        <mxCell id="wTgXuU1ysfdloSgrYVFF-23" value="input&amp;nbsp;&lt;div&gt;jumlah pembelian&amp;nbsp;&lt;/div&gt;" style="shape=parallelogram;perimeter=parallelogramPerimeter;whiteSpace=wrap;html=1;fixedSize=1;" vertex="1" parent="1">
          <mxGeometry x="210" y="580" width="120" height="60" as="geometry" />
        </mxCell>
        <mxCell id="wTgXuU1ysfdloSgrYVFF-28" value="" style="edgeStyle=orthogonalEdgeStyle;rounded=0;orthogonalLoop=1;jettySize=auto;html=1;" edge="1" parent="1" source="wTgXuU1ysfdloSgrYVFF-26" target="wTgXuU1ysfdloSgrYVFF-27">
          <mxGeometry relative="1" as="geometry" />
        </mxCell>
        <mxCell id="wTgXuU1ysfdloSgrYVFF-32" value="" style="edgeStyle=orthogonalEdgeStyle;rounded=0;orthogonalLoop=1;jettySize=auto;html=1;" edge="1" parent="1" source="wTgXuU1ysfdloSgrYVFF-26" target="wTgXuU1ysfdloSgrYVFF-30">
          <mxGeometry relative="1" as="geometry" />
        </mxCell>
        <mxCell id="wTgXuU1ysfdloSgrYVFF-26" value="pilihan ==3" style="rhombus;whiteSpace=wrap;html=1;" vertex="1" parent="1">
          <mxGeometry x="370" y="480" width="80" height="80" as="geometry" />
        </mxCell>
        <mxCell id="wTgXuU1ysfdloSgrYVFF-72" value="" style="edgeStyle=orthogonalEdgeStyle;rounded=0;orthogonalLoop=1;jettySize=auto;html=1;" edge="1" parent="1" source="wTgXuU1ysfdloSgrYVFF-27" target="wTgXuU1ysfdloSgrYVFF-69">
          <mxGeometry relative="1" as="geometry" />
        </mxCell>
        <mxCell id="wTgXuU1ysfdloSgrYVFF-27" value="input jumlah pembelian" style="shape=parallelogram;perimeter=parallelogramPerimeter;whiteSpace=wrap;html=1;fixedSize=1;" vertex="1" parent="1">
          <mxGeometry x="350" y="580" width="120" height="60" as="geometry" />
        </mxCell>
        <mxCell id="wTgXuU1ysfdloSgrYVFF-33" value="" style="edgeStyle=orthogonalEdgeStyle;rounded=0;orthogonalLoop=1;jettySize=auto;html=1;" edge="1" parent="1" source="wTgXuU1ysfdloSgrYVFF-30" target="wTgXuU1ysfdloSgrYVFF-31">
          <mxGeometry relative="1" as="geometry" />
        </mxCell>
        <mxCell id="wTgXuU1ysfdloSgrYVFF-35" value="" style="edgeStyle=orthogonalEdgeStyle;rounded=0;orthogonalLoop=1;jettySize=auto;html=1;" edge="1" parent="1" source="wTgXuU1ysfdloSgrYVFF-30" target="wTgXuU1ysfdloSgrYVFF-34">
          <mxGeometry relative="1" as="geometry" />
        </mxCell>
        <mxCell id="wTgXuU1ysfdloSgrYVFF-30" value="pilihan ==4" style="rhombus;whiteSpace=wrap;html=1;" vertex="1" parent="1">
          <mxGeometry x="510" y="480" width="80" height="80" as="geometry" />
        </mxCell>
        <mxCell id="wTgXuU1ysfdloSgrYVFF-51" style="edgeStyle=orthogonalEdgeStyle;rounded=0;orthogonalLoop=1;jettySize=auto;html=1;entryX=0.577;entryY=0;entryDx=0;entryDy=0;entryPerimeter=0;" edge="1" parent="1" source="wTgXuU1ysfdloSgrYVFF-31" target="wTgXuU1ysfdloSgrYVFF-48">
          <mxGeometry relative="1" as="geometry">
            <mxPoint x="130" y="960" as="targetPoint" />
            <Array as="points">
              <mxPoint x="550" y="920" />
              <mxPoint x="130" y="920" />
            </Array>
          </mxGeometry>
        </mxCell>
        <mxCell id="wTgXuU1ysfdloSgrYVFF-31" value="output&amp;nbsp;&lt;div&gt;terima kasih&amp;nbsp;&lt;/div&gt;" style="shape=parallelogram;perimeter=parallelogramPerimeter;whiteSpace=wrap;html=1;fixedSize=1;" vertex="1" parent="1">
          <mxGeometry x="490" y="580" width="120" height="60" as="geometry" />
        </mxCell>
        <mxCell id="wTgXuU1ysfdloSgrYVFF-36" style="edgeStyle=orthogonalEdgeStyle;rounded=0;orthogonalLoop=1;jettySize=auto;html=1;entryX=1;entryY=0.5;entryDx=0;entryDy=0;" edge="1" parent="1" source="wTgXuU1ysfdloSgrYVFF-34" target="wTgXuU1ysfdloSgrYVFF-13">
          <mxGeometry relative="1" as="geometry">
            <mxPoint x="760" y="370" as="targetPoint" />
            <Array as="points">
              <mxPoint x="761" y="520" />
              <mxPoint x="761" y="350" />
            </Array>
          </mxGeometry>
        </mxCell>
        <mxCell id="wTgXuU1ysfdloSgrYVFF-34" value="output&lt;div&gt;pilih 1-4&lt;/div&gt;" style="shape=parallelogram;perimeter=parallelogramPerimeter;whiteSpace=wrap;html=1;fixedSize=1;" vertex="1" parent="1">
          <mxGeometry x="620" y="490" width="120" height="60" as="geometry" />
        </mxCell>
        <mxCell id="wTgXuU1ysfdloSgrYVFF-76" style="edgeStyle=orthogonalEdgeStyle;rounded=0;orthogonalLoop=1;jettySize=auto;html=1;entryX=0;entryY=0.5;entryDx=0;entryDy=0;" edge="1" parent="1" source="wTgXuU1ysfdloSgrYVFF-37" target="wTgXuU1ysfdloSgrYVFF-13">
          <mxGeometry relative="1" as="geometry">
            <mxPoint x="30" y="343" as="targetPoint" />
            <Array as="points">
              <mxPoint x="30" y="811" />
              <mxPoint x="30" y="350" />
            </Array>
          </mxGeometry>
        </mxCell>
        <mxCell id="wTgXuU1ysfdloSgrYVFF-78" style="edgeStyle=orthogonalEdgeStyle;rounded=0;orthogonalLoop=1;jettySize=auto;html=1;entryX=0.409;entryY=-0.023;entryDx=0;entryDy=0;entryPerimeter=0;" edge="1" parent="1" source="wTgXuU1ysfdloSgrYVFF-37" target="wTgXuU1ysfdloSgrYVFF-48">
          <mxGeometry relative="1" as="geometry">
            <mxPoint x="110" y="900" as="targetPoint" />
            <Array as="points">
              <mxPoint x="390" y="810" />
              <mxPoint x="390" y="900" />
              <mxPoint x="119" y="900" />
            </Array>
          </mxGeometry>
        </mxCell>
        <mxCell id="wTgXuU1ysfdloSgrYVFF-37" value="apakah ingin beli lagi&amp;nbsp;" style="rhombus;whiteSpace=wrap;html=1;" vertex="1" parent="1">
          <mxGeometry x="230" y="770" width="80" height="80" as="geometry" />
        </mxCell>
        <mxCell id="wTgXuU1ysfdloSgrYVFF-48" value="selesai" style="ellipse;whiteSpace=wrap;html=1;" vertex="1" parent="1">
          <mxGeometry x="92.5" y="970" width="65" height="40" as="geometry" />
        </mxCell>
        <mxCell id="wTgXuU1ysfdloSgrYVFF-54" value="true" style="text;html=1;align=center;verticalAlign=middle;resizable=0;points=[];autosize=1;strokeColor=none;fillColor=none;" vertex="1" parent="1">
          <mxGeometry x="370" y="108" width="40" height="30" as="geometry" />
        </mxCell>
        <mxCell id="wTgXuU1ysfdloSgrYVFF-55" value="false" style="text;html=1;align=center;verticalAlign=middle;resizable=0;points=[];autosize=1;strokeColor=none;fillColor=none;" vertex="1" parent="1">
          <mxGeometry x="545" y="218" width="50" height="30" as="geometry" />
        </mxCell>
        <mxCell id="wTgXuU1ysfdloSgrYVFF-56" value="false" style="text;html=1;align=center;verticalAlign=middle;resizable=0;points=[];autosize=1;strokeColor=none;fillColor=none;" vertex="1" parent="1">
          <mxGeometry x="165" y="218" width="50" height="30" as="geometry" />
        </mxCell>
        <mxCell id="wTgXuU1ysfdloSgrYVFF-57" value="true" style="text;html=1;align=center;verticalAlign=middle;resizable=0;points=[];autosize=1;strokeColor=none;fillColor=none;" vertex="1" parent="1">
          <mxGeometry x="125" y="290" width="40" height="30" as="geometry" />
        </mxCell>
        <mxCell id="wTgXuU1ysfdloSgrYVFF-58" value="true" style="text;html=1;align=center;verticalAlign=middle;resizable=0;points=[];autosize=1;strokeColor=none;fillColor=none;" vertex="1" parent="1">
          <mxGeometry x="120" y="550" width="40" height="30" as="geometry" />
        </mxCell>
        <mxCell id="wTgXuU1ysfdloSgrYVFF-59" value="false" style="text;html=1;align=center;verticalAlign=middle;resizable=0;points=[];autosize=1;strokeColor=none;fillColor=none;" vertex="1" parent="1">
          <mxGeometry x="165" y="498" width="50" height="30" as="geometry" />
        </mxCell>
        <mxCell id="wTgXuU1ysfdloSgrYVFF-60" value="false" style="text;html=1;align=center;verticalAlign=middle;resizable=0;points=[];autosize=1;strokeColor=none;fillColor=none;" vertex="1" parent="1">
          <mxGeometry x="315" y="498" width="50" height="30" as="geometry" />
        </mxCell>
        <mxCell id="wTgXuU1ysfdloSgrYVFF-61" value="false" style="text;html=1;align=center;verticalAlign=middle;resizable=0;points=[];autosize=1;strokeColor=none;fillColor=none;" vertex="1" parent="1">
          <mxGeometry x="445" y="498" width="50" height="30" as="geometry" />
        </mxCell>
        <mxCell id="wTgXuU1ysfdloSgrYVFF-62" value="false" style="text;html=1;align=center;verticalAlign=middle;resizable=0;points=[];autosize=1;strokeColor=none;fillColor=none;" vertex="1" parent="1">
          <mxGeometry x="585" y="498" width="50" height="30" as="geometry" />
        </mxCell>
        <mxCell id="wTgXuU1ysfdloSgrYVFF-63" value="true" style="text;html=1;align=center;verticalAlign=middle;resizable=0;points=[];autosize=1;strokeColor=none;fillColor=none;" vertex="1" parent="1">
          <mxGeometry x="550" y="548" width="40" height="30" as="geometry" />
        </mxCell>
        <mxCell id="wTgXuU1ysfdloSgrYVFF-64" value="true" style="text;html=1;align=center;verticalAlign=middle;resizable=0;points=[];autosize=1;strokeColor=none;fillColor=none;" vertex="1" parent="1">
          <mxGeometry x="405" y="548" width="40" height="30" as="geometry" />
        </mxCell>
        <mxCell id="wTgXuU1ysfdloSgrYVFF-65" value="true" style="text;html=1;align=center;verticalAlign=middle;resizable=0;points=[];autosize=1;strokeColor=none;fillColor=none;" vertex="1" parent="1">
          <mxGeometry x="270" y="550" width="40" height="30" as="geometry" />
        </mxCell>
        <mxCell id="wTgXuU1ysfdloSgrYVFF-73" style="edgeStyle=orthogonalEdgeStyle;rounded=0;orthogonalLoop=1;jettySize=auto;html=1;" edge="1" parent="1" source="wTgXuU1ysfdloSgrYVFF-66" target="wTgXuU1ysfdloSgrYVFF-37">
          <mxGeometry relative="1" as="geometry">
            <mxPoint x="125" y="760" as="targetPoint" />
            <Array as="points">
              <mxPoint x="125" y="760" />
              <mxPoint x="270" y="760" />
            </Array>
          </mxGeometry>
        </mxCell>
        <mxCell id="wTgXuU1ysfdloSgrYVFF-66" value="output&amp;nbsp;&lt;div&gt;struk pembelian&amp;nbsp;&amp;nbsp;&lt;/div&gt;" style="shape=parallelogram;perimeter=parallelogramPerimeter;whiteSpace=wrap;html=1;fixedSize=1;" vertex="1" parent="1">
          <mxGeometry x="65" y="660" width="120" height="60" as="geometry" />
        </mxCell>
        <mxCell id="wTgXuU1ysfdloSgrYVFF-74" value="" style="edgeStyle=orthogonalEdgeStyle;rounded=0;orthogonalLoop=1;jettySize=auto;html=1;" edge="1" parent="1" source="wTgXuU1ysfdloSgrYVFF-68" target="wTgXuU1ysfdloSgrYVFF-37">
          <mxGeometry relative="1" as="geometry" />
        </mxCell>
        <mxCell id="wTgXuU1ysfdloSgrYVFF-68" value="output&amp;nbsp;&lt;div&gt;struk pembelian&amp;nbsp;&amp;nbsp;&lt;/div&gt;" style="shape=parallelogram;perimeter=parallelogramPerimeter;whiteSpace=wrap;html=1;fixedSize=1;" vertex="1" parent="1">
          <mxGeometry x="210" y="660" width="120" height="60" as="geometry" />
        </mxCell>
        <mxCell id="wTgXuU1ysfdloSgrYVFF-75" style="edgeStyle=orthogonalEdgeStyle;rounded=0;orthogonalLoop=1;jettySize=auto;html=1;" edge="1" parent="1" source="wTgXuU1ysfdloSgrYVFF-69">
          <mxGeometry relative="1" as="geometry">
            <mxPoint x="270" y="770" as="targetPoint" />
            <Array as="points">
              <mxPoint x="410" y="760" />
            </Array>
          </mxGeometry>
        </mxCell>
        <mxCell id="wTgXuU1ysfdloSgrYVFF-69" value="output&amp;nbsp;&lt;div&gt;struk pembelian&amp;nbsp;&amp;nbsp;&lt;/div&gt;" style="shape=parallelogram;perimeter=parallelogramPerimeter;whiteSpace=wrap;html=1;fixedSize=1;" vertex="1" parent="1">
          <mxGeometry x="350" y="660" width="120" height="60" as="geometry" />
        </mxCell>
        <mxCell id="wTgXuU1ysfdloSgrYVFF-77" value="true" style="text;html=1;align=center;verticalAlign=middle;resizable=0;points=[];autosize=1;strokeColor=none;fillColor=none;" vertex="1" parent="1">
          <mxGeometry x="140" y="778" width="40" height="30" as="geometry" />
        </mxCell>
        <mxCell id="wTgXuU1ysfdloSgrYVFF-79" value="" style="edgeStyle=segmentEdgeStyle;endArrow=classic;html=1;curved=0;rounded=0;endSize=8;startSize=8;sourcePerimeterSpacing=0;targetPerimeterSpacing=0;" edge="1" parent="1">
          <mxGeometry width="100" relative="1" as="geometry">
            <mxPoint x="335" y="270" as="sourcePoint" />
            <mxPoint x="365" y="270" as="targetPoint" />
            <Array as="points">
              <mxPoint x="365" y="270" />
            </Array>
          </mxGeometry>
        </mxCell>
        <mxCell id="wTgXuU1ysfdloSgrYVFF-80" value="" style="edgeStyle=segmentEdgeStyle;endArrow=classic;html=1;curved=0;rounded=0;endSize=8;startSize=8;sourcePerimeterSpacing=0;targetPerimeterSpacing=0;" edge="1" parent="1">
          <mxGeometry width="100" relative="1" as="geometry">
            <mxPoint x="50" y="120" as="sourcePoint" />
            <mxPoint x="80" y="120" as="targetPoint" />
            <Array as="points">
              <mxPoint x="80" y="120" />
            </Array>
          </mxGeometry>
        </mxCell>
        <mxCell id="wTgXuU1ysfdloSgrYVFF-81" value="" style="edgeStyle=segmentEdgeStyle;endArrow=classic;html=1;curved=0;rounded=0;endSize=8;startSize=8;sourcePerimeterSpacing=0;targetPerimeterSpacing=0;" edge="1" parent="1">
          <mxGeometry width="100" relative="1" as="geometry">
            <mxPoint x="170" y="370" as="sourcePoint" />
            <mxPoint x="195" y="370" as="targetPoint" />
            <Array as="points">
              <mxPoint x="195" y="370" />
            </Array>
          </mxGeometry>
        </mxCell>
        <mxCell id="wTgXuU1ysfdloSgrYVFF-82" value="" style="edgeStyle=segmentEdgeStyle;endArrow=classic;html=1;curved=0;rounded=0;endSize=8;startSize=8;sourcePerimeterSpacing=0;targetPerimeterSpacing=0;" edge="1" parent="1">
          <mxGeometry width="100" relative="1" as="geometry">
            <mxPoint x="50" y="410" as="sourcePoint" />
            <mxPoint x="80" y="410" as="targetPoint" />
            <Array as="points">
              <mxPoint x="80" y="410" />
            </Array>
          </mxGeometry>
        </mxCell>
        <mxCell id="wTgXuU1ysfdloSgrYVFF-83" value="" style="edgeStyle=segmentEdgeStyle;endArrow=classic;html=1;curved=0;rounded=0;endSize=8;startSize=8;sourcePerimeterSpacing=0;targetPerimeterSpacing=0;" edge="1" parent="1">
          <mxGeometry width="100" relative="1" as="geometry">
            <mxPoint x="50" y="590" as="sourcePoint" />
            <mxPoint x="80" y="590" as="targetPoint" />
            <Array as="points">
              <mxPoint x="80" y="590" />
            </Array>
          </mxGeometry>
        </mxCell>
        <mxCell id="wTgXuU1ysfdloSgrYVFF-84" value="" style="edgeStyle=segmentEdgeStyle;endArrow=classic;html=1;curved=0;rounded=0;endSize=8;startSize=8;sourcePerimeterSpacing=0;targetPerimeterSpacing=0;entryX=0;entryY=0;entryDx=0;entryDy=0;" edge="1" parent="1" target="wTgXuU1ysfdloSgrYVFF-23">
          <mxGeometry width="100" relative="1" as="geometry">
            <mxPoint x="200" y="590" as="sourcePoint" />
            <mxPoint x="220.01999999999998" y="590" as="targetPoint" />
            <Array as="points">
              <mxPoint x="220" y="590" />
              <mxPoint x="220" y="589" />
            </Array>
          </mxGeometry>
        </mxCell>
        <mxCell id="wTgXuU1ysfdloSgrYVFF-85" value="" style="edgeStyle=segmentEdgeStyle;endArrow=classic;html=1;curved=0;rounded=0;endSize=8;startSize=8;sourcePerimeterSpacing=0;targetPerimeterSpacing=0;" edge="1" parent="1">
          <mxGeometry width="100" relative="1" as="geometry">
            <mxPoint x="335" y="590" as="sourcePoint" />
            <mxPoint x="365" y="590" as="targetPoint" />
            <Array as="points">
              <mxPoint x="365" y="590" />
            </Array>
          </mxGeometry>
        </mxCell>
        <mxCell id="wTgXuU1ysfdloSgrYVFF-86" value="" style="edgeStyle=segmentEdgeStyle;endArrow=classic;html=1;curved=0;rounded=0;endSize=8;startSize=8;sourcePerimeterSpacing=0;targetPerimeterSpacing=0;" edge="1" parent="1">
          <mxGeometry width="100" relative="1" as="geometry">
            <mxPoint x="595" y="630" as="sourcePoint" />
            <mxPoint x="625" y="630" as="targetPoint" />
            <Array as="points">
              <mxPoint x="625" y="630" />
            </Array>
          </mxGeometry>
        </mxCell>
        <mxCell id="wTgXuU1ysfdloSgrYVFF-87" value="" style="edgeStyle=segmentEdgeStyle;endArrow=classic;html=1;curved=0;rounded=0;endSize=8;startSize=8;sourcePerimeterSpacing=0;targetPerimeterSpacing=0;exitX=0.865;exitY=0.821;exitDx=0;exitDy=0;exitPerimeter=0;" edge="1" parent="1" source="wTgXuU1ysfdloSgrYVFF-34">
          <mxGeometry width="100" relative="1" as="geometry">
            <mxPoint x="730" y="540" as="sourcePoint" />
            <mxPoint x="750" y="539" as="targetPoint" />
            <Array as="points">
              <mxPoint x="737" y="539" />
            </Array>
          </mxGeometry>
        </mxCell>
        <mxCell id="wTgXuU1ysfdloSgrYVFF-88" value="" style="edgeStyle=segmentEdgeStyle;endArrow=classic;html=1;curved=0;rounded=0;endSize=8;startSize=8;sourcePerimeterSpacing=0;targetPerimeterSpacing=0;" edge="1" parent="1">
          <mxGeometry width="100" relative="1" as="geometry">
            <mxPoint x="170" y="710" as="sourcePoint" />
            <mxPoint x="195" y="710" as="targetPoint" />
            <Array as="points">
              <mxPoint x="195" y="710" />
            </Array>
          </mxGeometry>
        </mxCell>
        <mxCell id="wTgXuU1ysfdloSgrYVFF-89" value="" style="edgeStyle=segmentEdgeStyle;endArrow=classic;html=1;curved=0;rounded=0;endSize=8;startSize=8;sourcePerimeterSpacing=0;targetPerimeterSpacing=0;" edge="1" parent="1">
          <mxGeometry width="100" relative="1" as="geometry">
            <mxPoint x="315" y="710" as="sourcePoint" />
            <mxPoint x="345" y="710" as="targetPoint" />
            <Array as="points">
              <mxPoint x="345" y="710" />
            </Array>
          </mxGeometry>
        </mxCell>
        <mxCell id="wTgXuU1ysfdloSgrYVFF-90" value="" style="edgeStyle=segmentEdgeStyle;endArrow=classic;html=1;curved=0;rounded=0;endSize=8;startSize=8;sourcePerimeterSpacing=0;targetPerimeterSpacing=0;" edge="1" parent="1">
          <mxGeometry width="100" relative="1" as="geometry">
            <mxPoint x="455" y="710" as="sourcePoint" />
            <mxPoint x="485" y="710" as="targetPoint" />
            <Array as="points">
              <mxPoint x="485" y="710" />
            </Array>
          </mxGeometry>
        </mxCell>
        <mxCell id="wTgXuU1ysfdloSgrYVFF-91" value="false&lt;div&gt;&lt;br&gt;&lt;/div&gt;" style="text;html=1;align=center;verticalAlign=middle;resizable=0;points=[];autosize=1;strokeColor=none;fillColor=none;" vertex="1" parent="1">
          <mxGeometry x="335" y="783" width="50" height="40" as="geometry" />
        </mxCell>
      </root>
    </mxGraphModel>
  </diagram>
</mxfile>
